<svg xmlns="http://www.w3.org/2000/svg" viewBox="0 0 24 24" fill="none">
  <g transform="scale(2 2)">
    <path fill="currentColor" d="M5.49 5.65C5.63 5.645 5.81 5.63 5.92 5.715C6.14 5.88 6.04 6.24 5.74 6.27C5.59 6.271 5.415 6.295 5.29 6.195C5.07 6.025 5.18 5.67 5.49 5.65Z" />
    <path fill="currentColor" d="M6.89 5.65C6.94 5.639 7.005 5.649 7.055 5.649L7.87 5.65C7.975 5.649 8.155 5.625 8.25 5.68C8.505 5.83 8.45 6.18 8.13 6.25L7.31 6.25C7.17 6.251 6.985 6.265 6.85 6.24C6.495 6.175 6.535 5.656 6.89 5.65Z" />
    <path fill="currentColor" d="M5.45 8.07C5.79 8.063 6.14 8.07 6.48 8.07L6.83 8.07C6.95 8.069 7.09 8.051 7.195 8.117C7.44 8.27 7.335 8.615 7.065 8.677C6.985 8.683 6.895 8.677 6.81 8.677L5.785 8.677C5.67 8.676 5.555 8.68 5.44 8.663C5.105 8.622 5.095 8.115 5.45 8.07Z" />
    <path opacity="0.5" fill="currentColor" d="M3.89 3.25C4.055 3.26 4.34 3.227 4.485 3.267C4.77 3.342 4.805 3.75 4.515 3.835C4.375 3.875 4.075 3.84 3.915 3.85L3.905 3.85C3.878 3.97 3.85 4.4 3.902 4.46C4.045 4.52 4.745 4.315 4.71 4.785C4.665 5.09 4.45 5.057 4.225 5.055C3.835 5.053 3.425 5.054 3.32 4.555C3.295 4.435 3.298 3.885 3.32 3.765C3.375 3.48 3.61 3.31 3.89 3.25Z" />
    <path opacity="0.5" fill="currentColor" d="M3.905 6.85C4.105 6.867 4.475 6.8 4.63 6.95C4.75 7.067 4.738 7.267 4.62 7.385C4.52 7.485 4.375 7.463 4.245 7.463L3.89 7.462L3.89 8.07C4.205 8.08 4.765 7.95 4.71 8.45C4.66 8.55 4.583 8.65 4.47 8.675C4.35 8.705 3.905 8.697 3.775 8.623C3.55 8.57 3.365 8.38 3.32 8.15C3.3 8.05 3.304 7.462 3.325 7.363C3.385 7.035 3.61 6.9 3.905 6.85Z" />
    <path fill="currentColor" d="M5.422 6.85C5.545 6.842 5.67 6.85 5.8 6.85L7.585 6.85C7.715 6.85 8.095 6.833 8.195 6.863C8.475 6.947 8.474 7.31 8.175 7.462C8.1 7.475 8.01 7.463 7.935 7.462L6.115 7.462C5.95 7.462 5.505 7.497 5.365 7.427C5.1 7.297 5.15 6.925 5.422 6.85Z" />
    <path opacity="0.5" fill="currentColor" d="M10.1 4.525C10.2 4.595 10.317 4.73 10.4 4.82L10.74 5.17C10.87 5.3 11.01 5.425 11.145 5.56C11.435 5.85 11.525 5.95 11.19 6.285L11.01 6.465C10.705 6.775 10.405 7.075 10.1 7.35C10.095 7.257 10.1 7.16 10.1 7.067L10.1 6.517C10.07 6.227 10.092 5.707 10.1 5.417C10.095 5.115 10.091 4.81 10.1 4.525ZM10.1 5.417C10.092 5.707 10.07 6.227 10.1 6.517C10.167 6.413 10.542 6.067 10.665 5.95C10.48 5.765 10.25 5.585 10.075 5.375C10.069 5.39 10.068 5.407 10.1 5.417Z" />
    <path fill="currentColor" d="M2.075 4.463C2.225 4.448 2.37 4.58 2.388 4.725C2.41 4.905 2.262 5.007 2.145 5.123C1.99 5.273 1.76 5.48 1.627 5.645L1.62 5.65C1.697 5.654 1.777 5.65 1.855 5.65L4.18 5.65C4.283 5.65 4.39 5.644 4.49 5.658C4.717 5.693 4.795 6 4.635 6.163C4.525 6.275 4.375 6.248 4.235 6.248L2.187 6.248L1.66 6.248C1.7 6.31 1.767 6.363 1.825 6.418L2.165 6.747C2.253 6.833 2.375 6.923 2.392 7.057C2.413 7.215 2.28 7.375 2.125 7.39C1.925 7.407 1.8 7.223 1.67 7.113L0.88 6.327C0.528 5.98 0.515 5.935 0.867 5.58L1.278 5.167C1.438 5.007 1.863 4.505 2.075 4.463Z" />
    <path fill="currentColor" d="M5.45 3.25C5.645 3.24 5.845 3.25 6.05 3.25L7.885 3.25C8.275 3.249 8.725 3.287 8.73 3.815L8.73 4.225C8.732 4.885 8.567 5.047 7.885 5.047L5.53 5.047C5.227 5.047 5.075 4.737 5.265 4.543C5.385 4.417 5.595 4.45 5.755 4.45L8.13 4.45L8.13 3.85L5.755 3.85C5.66 3.85 5.555 3.858 5.455 3.848C5.115 3.81 5.105 3.3 5.45 3.25Z" />
    <path fill="currentColor" d="M10.1 7.35L10.1 9.2C10.1 9.34 10.103 9.48 10.075 9.62C9.965 10.15 9.485 10.575 8.935 10.62C8.78 10.632 8.625 10.627 8.47 10.627L3.42 10.627C3.293 10.627 3.167 10.632 3.04 10.613C2.285 10.5 1.883 9.85 1.885 9.15L1.885 8.5C1.885 8.375 1.873 8.243 1.965 8.143C2.08 8.013 2.285 8.023 2.405 8.135C2.522 8.245 2.495 8.47 2.495 8.613L2.495 9.1C2.495 9.175 2.49 9.25 2.493 9.325C2.517 9.893 2.995 10.037 3.475 10.037L8.405 10.037C9.265 10.037 9.525 9.923 9.525 9.05L9.525 3L9.525 2.543C9.5 2.193 9.225 1.9 8.875 1.853C8.765 1.84 8.65 1.845 8.535 1.845L3.585 1.845C3.195 1.845 2.85 1.817 2.61 2.207C2.485 2.407 2.497 2.597 2.497 2.823L2.497 3.287C2.497 3.39 2.51 3.503 2.488 3.603C2.437 3.833 2.155 3.907 1.995 3.747C1.835 3.593 1.883 3.127 1.885 2.917C1.885 2.415 1.92 2.023 2.293 1.643C2.575 1.35 2.895 1.247 3.295 1.243C3.735 1.238 4.175 1.243 4.615 1.243L8.295 1.243C8.535 1.243 8.795 1.225 9.033 1.268C9.515 1.357 9.945 1.763 10.067 2.237C10.137 2.513 10.1 2.943 10.1 3.223L10.1 4.525C10.091 4.81 10.095 5.115 10.1 5.417C10.092 5.707 10.07 6.227 10.1 6.517L10.1 7.067C10.1 7.16 10.095 7.257 10.1 7.35Z" />
  </g>
</svg>