<svg xmlns="http://www.w3.org/2000/svg" viewBox="0 0 24 24">
  <g transform="scale(2 2)">
    <path fill="currentColor" d="M6.03 0.63C6.21 0.63 6.47 0.95 6.62 1.09L6.97 1.41C7.13 1.56 7.42 1.77 7.19 2.01C6.94 2.27 6.67 1.88 6.51 1.72C6.36 1.57 6.2 1.42 6.05 1.27L6.04 1.27C6 1.28 5.42 1.88 5.35 1.95C5.22 2.07 5.1 2.17 4.93 2.04C4.66 1.83 4.91 1.62 5.06 1.48L5.52 1.04C5.66 0.9 5.86 0.65 6.03 0.63Z" />
    <path fill="currentColor" d="M1.87 8.23C2.2 8.18 2.16 8.57 2.16 8.77L2.16 9.51C2.16 9.69 2.14 9.93 2.18 10.1C2.31 10.6 2.72 10.63 3.14 10.63L3.6 10.63C3.7 10.63 3.82 10.61 3.91 10.67C4.13 10.81 4.04 11.11 3.81 11.15L3.19 11.15C2.72 11.15 2.38 11.16 2.02 10.81C1.6 10.4 1.64 10.03 1.64 9.51L1.64 8.51C1.64 8.36 1.72 8.23 1.87 8.23Z" />
    <path fill="currentColor" d="M10.22 8.23C10.43 8.21 10.53 8.34 10.53 8.54L10.53 9.45C10.53 9.68 10.55 9.97 10.5 10.19C10.39 10.67 9.97 11.09 9.47 11.15C9.34 11.16 9.2 11.16 9.07 11.16L8.47 11.15C8.24 11.17 8.08 10.97 8.18 10.77C8.26 10.61 8.45 10.63 8.6 10.63L9.02 10.63C9.66 10.63 10.01 10.48 10.01 9.77L10.01 8.72C10.01 8.51 9.97 8.31 10.22 8.23Z" />
    <path fill="currentColor" d="M2.77 0.97C2.85 0.96 2.92 0.97 3 0.97L3.44 0.97C3.54 0.97 3.71 0.95 3.8 0.97C4.07 1.01 4.2 1.49 3.66 1.49L3.15 1.49C2.85 1.49 2.6 1.46 2.37 1.7C2.12 1.95 2.16 2.25 2.16 2.57L2.16 3.16C2.16 3.28 2.17 3.58 2.15 3.68C2.12 3.88 1.88 3.95 1.73 3.82C1.61 3.71 1.64 3.52 1.64 3.38L1.64 2.41C1.64 2.25 1.63 2.08 1.67 1.92C1.79 1.41 2.25 1 2.77 0.97Z" />
    <path fill="currentColor" d="M8.36 0.97L8.95 0.97C9.3 0.97 9.59 0.95 9.92 1.13C10.45 1.41 10.55 1.87 10.55 2.41L10.55 3.42C10.55 3.62 10.58 3.83 10.33 3.9C9.97 3.95 10 3.6 10 3.38L10 2.57C10 2.42 10.01 2.27 9.99 2.12C9.93 1.57 9.46 1.49 9.04 1.49L8.61 1.49C8.51 1.49 8.39 1.51 8.29 1.46C8.06 1.34 8.13 1.03 8.36 0.97Z" />
    <path opacity="0.5" fill="currentColor" d="M9.22 5.89C9.36 5.8 9.76 5.34 9.89 5.21C10.02 5.08 10.25 4.74 10.47 4.91C10.71 5.1 11.08 5.51 11.31 5.74C11.61 6.06 11.6 6.1 11.29 6.4C11.21 6.47 11.14 6.55 11.06 6.62L10.71 6.97C10.35 7.34 10.35 7.38 9.93 6.96C9.73 6.75 9.44 6.43 9.22 6.25L9.22 5.89ZM10.33 5.51C10.16 5.67 9.92 5.9 9.76 6.07C9.81 6.12 10.32 6.61 10.33 6.62L10.33 6.62C10.52 6.43 10.71 6.24 10.9 6.06C10.84 6 10.78 5.94 10.72 5.89L10.33 5.51Z" />
    <path opacity="0.5" fill="currentColor" d="M2.96 6.25C2.92 6.26 2.73 6.48 2.69 6.53L2.25 6.95C1.97 7.24 1.91 7.41 1.57 7.07L0.94 6.43C0.65 6.14 0.54 6.09 0.89 5.74L1.58 5.03C1.88 4.72 1.97 4.87 2.23 5.14L2.73 5.63C2.81 5.71 2.88 5.79 2.96 5.86L2.96 5.86L2.96 6.14C2.96 6.18 2.95 6.22 2.96 6.25ZM1.85 5.51C1.71 5.64 1.43 5.91 1.31 6.06C1.41 6.13 1.83 6.6 1.87 6.6C2.01 6.44 2.25 6.18 2.41 6.06C2.34 5.98 1.91 5.54 1.85 5.51Z" />
    <path fill="currentColor" d="M2.96 5.86C2.97 5.76 2.96 5.67 2.96 5.57L2.96 2.68C2.96 2.12 3.02 2.13 3.6 2.13L8.72 2.13C9.21 2.13 9.22 2.15 9.22 2.69L9.22 5.59C9.22 5.69 9.21 5.79 9.22 5.89L9.22 6.25L9.22 9.44C9.22 9.94 9.27 10.05 8.72 10.05L8.34 10.05C7.94 10.05 7.55 10.05 7.15 10.05C7.39 10.3 7.22 10.41 7.03 10.61L6.57 11.07C6.39 11.24 6.18 11.61 5.9 11.4C5.81 11.32 5.71 11.19 5.62 11.11L5.18 10.67C4.99 10.48 4.75 10.31 4.97 10.05C4.84 10.05 4.71 10.05 4.58 10.05L3.43 10.05C3.18 10.05 2.96 10.06 2.96 9.74L2.96 7.29C2.96 6.94 2.97 6.59 2.96 6.25C2.95 6.22 2.96 6.18 2.96 6.14L2.96 5.86ZM3.48 2.66L3.48 8.48L8.69 8.48C8.7 8.39 8.69 8.31 8.69 8.22L8.69 3.05C8.69 2.92 8.69 2.79 8.69 2.66L3.48 2.66ZM3.51 9L3.49 9.01C3.47 9.05 3.49 9.44 3.49 9.52C3.64 9.53 3.84 9.52 4 9.52L8.66 9.52L8.68 9.52C8.7 9.49 8.69 9.07 8.69 9L3.51 9ZM5.92 10.05C5.71 10.05 5.51 10.05 5.3 10.05C5.37 10.12 5.44 10.19 5.51 10.26L5.9 10.66C5.96 10.71 6.02 10.77 6.07 10.83C6.1 10.8 6.13 10.77 6.16 10.75C6.4 10.52 6.63 10.28 6.86 10.05C6.76 10.04 6.65 10.05 6.54 10.05L5.92 10.05Z" />
    <path fill="currentColor" d="M5.89 3.01C7.25 2.95 8.36 3.85 8.58 5.2C8.8 6.48 7.96 7.73 6.72 8.07C6.56 8.11 6.41 8.12 6.26 8.15C5.59 8.15 5.13 8.05 4.57 7.63C3.27 6.65 3.2 4.72 4.4 3.65C4.87 3.23 5.29 3.1 5.89 3.01ZM5.98 3.54C5.42 3.58 4.92 3.81 4.56 4.24C3.98 4.92 3.89 6.09 4.5 6.79C4.71 6.39 4.95 6.13 5.4 6.01C5.15 5.67 5.11 5.47 5.11 5.07C5.1 4.75 5.12 4.45 5.41 4.24C5.68 4.06 5.91 4.1 6.21 4.1C6.85 4.09 7.06 4.44 7.06 5C7.06 5.47 7.02 5.66 6.76 6.01C7.21 6.12 7.52 6.41 7.69 6.82C7.75 6.73 7.81 6.64 7.86 6.54C8.56 5.14 7.53 3.45 5.98 3.54ZM5.69 6.52C5.26 6.55 4.99 6.81 4.9 7.22C5.35 7.55 5.88 7.7 6.43 7.6C6.75 7.54 7.02 7.42 7.27 7.22C7.13 6.59 6.73 6.5 6.21 6.5L5.69 6.52ZM5.81 4.62C5.55 4.72 5.6 5.1 5.63 5.32C5.67 5.64 5.99 5.94 6.31 5.73C6.56 5.54 6.59 5.1 6.54 4.83C6.5 4.61 6.31 4.63 6.15 4.63L5.81 4.62Z" />
  </g>
</svg>