<svg xmlns="http://www.w3.org/2000/svg" viewBox="0 0 24 24" fill="none">
  <g transform="scale(0.046875)">
    <path fill="currentColor" d="M258.26 276.252C263.986 276.565 266.778 279.358 270.878 283.139L291.042 302.086C303.345 313.504 307.73 317.419 292.75 331.724L282.482 341.536C278.509 345.329 267.77 356.626 263.694 358.777C254.249 363.759 243.899 354.418 247.23 344.27L247.344 343.93C249.09 339.6 256.669 333.441 260.301 329.974C250.86 329.855 229.201 331.233 220.851 329.487C211.888 327.613 209.195 315.426 215.575 309.159C220.159 304.658 228.969 306.21 234.731 306.222L261.402 306.239C257.006 301.738 248.716 296.632 247.377 290.276C245.703 282.337 250.906 277.441 258.26 276.252Z" />
    <path opacity="0.5" fill="currentColor" d="M130.638 253.112C160.583 249.524 188.188 274.921 192.116 303.756C194.525 321.433 188.989 336.815 178.451 350.789C184.044 352.575 192.751 359.659 197.051 363.727C218.918 384.419 216.767 402.496 216.799 429.027C216.808 437 217.676 448.861 215.857 456.214C211.969 471.93 198.161 481.383 182.258 481.735C172.798 481.944 166.396 473.286 171.148 464.408C175.588 456.113 184.807 461.592 190.557 456.006C194.66 452.02 193.28 444.824 193.283 439.708L193.29 415.522C193.29 400.506 193.076 392.448 181.699 381.181C167.756 367.373 152.767 369.694 135.015 369.728L120.469 369.717C110.804 369.709 102.373 369.832 93.7875 374.932C75.3897 385.86 74.4267 400.742 74.4371 419.451L74.4947 439.793C74.5019 444.439 73.1221 450.32 75.7475 454.503C79.573 460.597 86.7573 457.969 92.4614 459.448C107.22 463.276 101.893 490.572 72.9642 480.016C54.8932 473.422 50.7252 458.606 50.7418 441.642L50.7501 427.489C50.7504 419.368 50.1545 409.018 51.0723 401.226C53.6881 379.015 69.2499 359.892 89.3783 350.789C80.4449 338.233 75.0096 327.964 75.003 312.006C74.9905 281.896 99.5436 253.166 130.638 253.112ZM130.638 276.252C109.498 279.257 95.3675 296.757 98.7053 318.194C101.48 336.015 120.123 348.427 137.562 346.724C145.143 346.604 153.72 341.624 158.874 336.314C182.218 312.263 162.795 273.364 130.638 276.252Z" />
    <path opacity="0.5" fill="currentColor" d="M376.196 251.876C426.878 248.823 457.028 310.902 422.505 350.789C424.84 352.333 427.43 353.553 429.845 354.977C445.459 364.184 457.506 380.72 460.478 398.664C462.388 410.2 461.456 423.295 461.451 434.99C461.444 448.827 462.299 461.468 451.709 472.23C431.333 492.935 402.033 478.2 413.682 463.322C423.115 451.275 437.069 470.551 437.068 440.522L437.055 419.699C436.999 379.117 421.165 369.663 382.625 369.728C369.357 369.712 352.416 368.123 340.613 374.654C320.591 385.736 318.652 399.495 318.641 419.565L318.638 436.878C318.633 441.553 318.084 446.812 318.748 451.42C319.874 459.24 328.492 457.576 333.918 459.1C348.435 463.179 344.204 489.245 316.395 479.615C292.392 471.304 294.579 449.281 294.563 429.473C294.555 421.07 293.975 410.792 294.927 402.631C297.623 379.518 313.077 360.661 333.884 350.789C300.978 313.291 324.967 255.048 376.196 251.876ZM374.996 276.252C335.932 276.722 325.142 344.293 381.812 346.724C394.372 343.181 403.302 338.646 409.779 327.012C423.754 301.914 396.942 270.547 374.996 276.252Z" />
    <path fill="currentColor" d="M250.941 26.7586C313.33 23.4688 353.943 87.5456 326.49 142.705C335.381 150.28 366.562 190.331 343.974 197.272C339.79 198.558 336.358 196.956 332.774 194.971C321.412 213.014 303.718 227.867 283.152 234.179C276.699 236.16 270.096 236.791 263.589 238.387L263.302 238.46C227.743 238.011 198.762 227.23 179.265 194.971C170.649 197.485 160.655 196.929 161.068 184.874C161.514 171.868 176.259 151.379 185.532 142.705C171.382 114.484 174.935 80.7604 194.675 55.897C209.758 36.9006 227.897 29.366 250.941 26.7586ZM252.312 49.8418C236.429 51.609 222.901 58.0181 212.805 70.6278C181.775 109.382 211.262 164.984 260.301 162.469C311.101 157.799 330.699 94.7284 291.067 62.3216C281.021 54.1074 265.404 48.1961 252.312 49.8418ZM200.251 162.469C197.282 164.276 194.576 167.249 192.637 170.123L192.821 170.429C194.486 173.239 195.347 176.462 197.026 179.25C206.74 195.387 221.229 207.357 239.59 212.203C264.752 218.843 294.333 208.95 309.549 187.487C313.785 181.964 316.801 176.389 319.735 170.123C317.78 167.261 315.428 164.738 312.807 162.469C299.265 174.738 287.09 182.467 268.647 185.105C247.57 188.119 226.541 183.617 209.385 170.521C208.367 169.744 200.494 162.516 200.251 162.469Z" />
  </g>
</svg>