<svg xmlns="http://www.w3.org/2000/svg" width="800px" height="800px" viewBox="0 0 24 24" fill="none">
  <g transform="scale(2 2)">
    <path opacity="0.5" fill="currentColor" d="M3.46 9.23C3.54 9.25 3.69 9.36 3.85 9.41C3.87 9.42 3.98 9.43 4 9.45C3.86 9.49 3.57 9.31 3.46 9.23Z" />
    <path opacity="0.5" fill="currentColor" d="M7.83 3.88C8.23 3.94 8.08 4.2 8.2 4.25L8.21 4.28C8.19 4.31 7.77 4.85 7.68 4.94C7.57 4.88 7.46 4.84 7.34 4.8C7.58 4.49 7.75 4.32 7.83 3.88Z" />
    <path fill="currentColor" d="M8.48 9.13C8.66 9.11 8.75 9.21 8.86 9.33L9.12 9.61C9.19 9.69 9.26 9.77 9.34 9.83C9.41 9.74 9.87 9.27 9.98 9.19C10.16 9.06 10.45 9.17 10.47 9.41C10.49 9.6 10.37 9.69 10.25 9.81L9.95 10.09C9.89 10.15 9.83 10.21 9.77 10.27L9.78 10.28C9.89 10.34 9.99 10.47 10.08 10.56C10.25 10.73 10.58 10.95 10.44 11.22C10.39 11.31 10.31 11.35 10.22 11.38C9.97 11.41 9.86 11.22 9.71 11.07L9.47 10.83C9.42 10.78 9.37 10.74 9.34 10.69C9.22 10.82 8.82 11.23 8.69 11.33C8.44 11.51 8.08 11.2 8.24 10.93C8.33 10.78 8.75 10.43 8.89 10.27C8.73 10.02 8.39 9.82 8.25 9.61C8.12 9.41 8.24 9.15 8.48 9.13Z" />
    <path fill="currentColor" d="M1.42 4.22C0.72 2.64 2.04 0.93 3.76 1.21C4.26 1.3 4.76 1.59 5.06 2.01C4.88 2.11 4.73 2.24 4.6 2.4C4.41 2.18 4.19 1.99 3.92 1.89C2.67 1.41 1.42 2.74 1.94 3.88C2.19 4.4 2.57 4.74 3.16 4.82C3.35 4.85 3.56 4.8 3.66 5.01C3.73 5.14 3.67 5.34 3.54 5.41C3.35 5.5 2.83 5.39 2.6 5.31C2.13 5.13 1.72 4.79 1.48 4.34C1.46 4.31 1.44 4.26 1.42 4.22Z" />
    <path fill="currentColor" d="M5.96 2.31C6.63 2.24 7.24 2.84 7.28 3.49C7.32 4.22 6.78 4.82 6.05 4.86C4.9 4.92 4.28 3.51 5.11 2.68C5.33 2.46 5.64 2.31 5.96 2.31ZM5.96 2.92C5.03 3.07 5.18 4.31 6.09 4.25C6.96 4.15 6.8 2.84 5.96 2.92Z" />
    <path fill="currentColor" d="M10.3 1.37L10 1.37C9.85 1.37 9.7 1.39 9.58 1.27C9.43 1.12 9.5 0.8 9.72 0.76C9.91 0.72 10.73 0.74 10.93 0.75C11.47 0.77 11.37 1.28 11.37 1.66C11.37 1.86 11.38 2.07 11.37 2.28C11.35 2.66 10.82 2.71 10.75 2.34C10.72 2.21 10.75 1.95 10.74 1.79C10.6 1.89 9.96 2.54 9.84 2.68C10.5 3.71 10.27 5.07 9.22 5.73C9.06 5.84 8.89 5.91 8.7 5.97C8.58 5.8 8.43 5.61 8.33 5.43C9.29 5.25 9.84 4.24 9.48 3.33C9.46 3.26 9.42 3.19 9.39 3.12C9.32 3.18 9.26 3.25 9.2 3.31L8.94 3.58C8.85 3.67 8.75 3.76 8.66 3.86C8.74 3.98 8.75 4.14 8.81 4.27C8.62 4.28 8.36 4.24 8.2 4.25C8.08 4.2 8.23 3.94 7.83 3.88C7.86 3.67 7.84 3.51 7.83 3.3C7.97 3.32 8.11 3.35 8.24 3.41C8.49 3.17 8.72 2.91 8.97 2.68C8.48 2.29 7.99 2.29 7.44 2.44C7.3 2.28 7.13 2.11 6.93 2.01C7.69 1.55 8.76 1.66 9.43 2.23C9.7 1.95 10.02 1.62 10.3 1.37Z" />
    <path opacity="0.5" fill="currentColor" d="M1.94 3.88C2.02 3.79 2.11 3.76 2.21 3.71C2.81 3.42 3.53 3.29 4.18 3.46C4.18 3.93 4.27 4.4 4.59 4.76C4.64 4.83 4.37 4.88 4.3 4.92C3.82 5.16 3.73 5.4 3.45 5.79L3.05 6.34C2.93 6.51 2.74 6.7 2.73 6.92C2.68 7.48 3.08 7.63 3.08 7.71C3.08 7.77 3.01 7.86 2.99 7.92C2.84 8.33 2.99 8.56 3.14 8.9C2.61 8.82 2.08 8.54 1.69 8.21C0.58 7.26 0.39 5.55 1.27 4.39C1.31 4.33 1.35 4.27 1.42 4.22C1.44 4.26 1.46 4.31 1.48 4.34C1.72 4.79 2.13 5.13 2.6 5.31C2.83 5.39 3.35 5.5 3.54 5.41C3.67 5.34 3.73 5.14 3.66 5.01C3.56 4.8 3.35 4.85 3.16 4.82C2.57 4.74 2.19 4.4 1.94 3.88Z" />
    <path fill="currentColor" d="M5.28 5.31L6.45 5.31C7.33 5.31 7.54 5.28 8.1 6.08C8.25 6.31 8.42 6.53 8.58 6.75C8.84 7.09 8.75 7.13 8.5 7.39L8.22 7.69C8.3 7.77 8.37 7.85 8.42 7.95C8.7 8.54 8.14 9.08 7.5 8.84L7.5 9.9C7.5 10.07 7.51 10.28 7.49 10.44C7.43 10.95 6.98 11.29 6.48 11.23C6.32 11.21 6.13 11.14 6.02 11.02C5.47 11.43 4.72 11.24 4.55 10.57C4.47 10.24 4.53 9.2 4.52 8.82C4.05 9.06 3.47 8.71 3.51 8.17C3.53 7.96 3.67 7.82 3.82 7.69C3.72 7.53 3.29 7.21 3.29 7.04C3.29 6.89 3.95 6.05 4.06 5.89C4.42 5.36 4.62 5.31 5.28 5.31ZM4.93 5.91C4.78 5.93 4.69 6.02 4.61 6.14L4.3 6.58C4.2 6.72 4.09 6.86 4 7.01C4.1 7.08 4.17 7.18 4.26 7.26L4.51 7.01C4.66 6.86 4.83 6.65 5.06 6.89C5.17 7 5.13 7.21 5.13 7.36L5.13 9.79C5.13 9.93 5.11 10.36 5.15 10.47C5.22 10.66 5.48 10.71 5.63 10.55C5.71 10.48 5.71 10.39 5.71 10.3L5.71 9.28C5.71 9.16 5.69 8.93 5.71 8.82C5.77 8.51 6.23 8.5 6.3 8.82C6.31 8.89 6.31 8.96 6.31 9.03L6.31 9.37L6.31 10.05C6.31 10.17 6.29 10.31 6.31 10.42C6.38 10.73 6.84 10.73 6.89 10.41C6.9 10.31 6.89 10.21 6.89 10.11L6.89 7.64C6.89 7.51 6.88 7.07 6.92 6.97C7.01 6.76 7.25 6.74 7.41 6.89C7.53 7.01 7.66 7.13 7.77 7.26C7.85 7.17 7.94 7.1 8.02 7.01C7.88 6.83 7.74 6.65 7.62 6.46L7.46 6.23C7.25 5.92 7.15 5.91 6.76 5.91L6.33 5.91C5.86 5.91 5.4 5.9 4.93 5.91ZM4.52 7.85C4.44 7.91 4.07 8.2 4.16 8.31C4.29 8.35 4.46 8.13 4.52 8.04C4.52 8.02 4.53 7.86 4.52 7.85ZM7.5 7.85C7.5 7.92 7.5 7.98 7.5 8.04C7.61 8.13 7.75 8.36 7.87 8.31C7.93 8.17 7.59 7.9 7.5 7.85Z" />
  </g>
</svg>